<svg width="600" height="600" viewBox="0 0 600 600" fill="none" xmlns="http://www.w3.org/2000/svg">
<circle cx="300" cy="300" r="199.5" fill="#FFEACE" stroke="black"/>
<path fill-rule="evenodd" clip-rule="evenodd" d="M100.004 302.367C107.303 292.233 132.428 281.681 174.668 320.411C216.935 359.165 264.079 291.496 282.367 252.817L323.008 274.785C335.282 290.995 348.582 282.319 365.642 271.19C394.831 252.147 435.029 225.923 499.931 304.892C499.97 303.266 499.99 301.635 499.99 300C499.99 189.543 410.447 100 299.99 100C229.62 100 167.738 136.343 132.09 191.284C109.564 230.092 100.876 272.555 100 302.033C100.001 302.144 100.002 302.256 100.004 302.367Z" fill="url(#paint0_linear_313_1122)"/>
<mask id="path-3-inside-1_313_1122" fill="white">
<path fill-rule="evenodd" clip-rule="evenodd" d="M300 600C465.685 600 600 465.685 600 300C600 134.315 465.685 0 300 0C134.315 0 0 134.315 0 300C0 465.685 134.315 600 300 600ZM300 500C410.457 500 500 410.457 500 300C500 189.543 410.457 100 300 100C189.543 100 100 189.543 100 300C100 410.457 189.543 500 300 500Z"/>
</mask>
<path fill-rule="evenodd" clip-rule="evenodd" d="M300 600C465.685 600 600 465.685 600 300C600 134.315 465.685 0 300 0C134.315 0 0 134.315 0 300C0 465.685 134.315 600 300 600ZM300 500C410.457 500 500 410.457 500 300C500 189.543 410.457 100 300 100C189.543 100 100 189.543 100 300C100 410.457 189.543 500 300 500Z" fill="#93B594"/>
<path d="M599 300C599 465.133 465.133 599 300 599V601C466.238 601 601 466.238 601 300H599ZM300 1C465.133 1 599 134.867 599 300H601C601 133.762 466.238 -1 300 -1V1ZM1 300C1 134.867 134.867 1 300 1V-1C133.762 -1 -1 133.762 -1 300H1ZM300 599C134.867 599 1 465.133 1 300H-1C-1 466.238 133.762 601 300 601V599ZM499 300C499 409.905 409.905 499 300 499V501C411.009 501 501 411.009 501 300H499ZM300 101C409.905 101 499 190.095 499 300H501C501 188.991 411.009 99 300 99V101ZM101 300C101 190.095 190.095 101 300 101V99C188.991 99 99 188.991 99 300H101ZM300 499C190.095 499 101 409.905 101 300H99C99 411.009 188.991 501 300 501V499Z" fill="black" mask="url(#path-3-inside-1_313_1122)"/>
<path d="M82.0975 399.046C82.4597 399.993 82.8996 401.366 83.4173 403.167L100.751 396.534L99.4724 388.714C100.362 388.203 101.281 387.994 102.23 388.087C103.697 392.665 104.926 396.25 105.917 398.84C106.756 401.031 108.186 404.396 110.207 408.933C109.318 409.445 108.428 409.728 107.535 409.784C106.138 407.178 104.878 405.376 103.754 404.379L58.9238 421.534L59.6311 427.859C58.7419 428.37 57.8225 428.579 56.873 428.486C55.4066 423.908 54.3684 420.822 53.7584 419.228C53.1294 417.584 52.296 415.704 51.258 413.589C50.1703 411.492 49.493 410.096 49.2261 409.398C46.8625 403.222 46.3834 397.866 47.7887 393.331C49.175 388.746 52.2839 385.529 57.1156 383.68C60.0544 382.555 62.858 382.196 65.5262 382.603C68.1944 383.009 70.5858 384.036 72.7005 385.682C74.7962 387.279 76.6194 389.208 78.1702 391.47C79.721 393.731 81.0301 396.257 82.0975 399.046ZM52.7885 408.635C53.4556 410.378 54.3755 412.11 55.5481 413.832L79.7562 404.568C79.4451 402.86 79.0036 401.258 78.4318 399.764C76.8879 395.729 74.597 392.951 71.5593 391.43C68.4527 389.877 64.8073 389.902 60.6232 391.503C56.8376 392.952 54.2471 395.285 52.8516 398.503C51.4562 401.721 51.4352 405.098 52.7885 408.635Z" fill="black"/>
<path d="M72.032 238.941L66.6856 256.715L79.7434 266.073L83.05 260.635C84.0665 260.773 84.9219 261.17 85.6161 261.824C83.9781 266.344 82.9132 269.421 82.4216 271.055C82.1604 271.924 81.9325 272.774 81.7377 273.606C81.543 274.439 81.3559 275.246 81.1765 276.027C80.9972 276.809 80.8331 277.539 80.6845 278.219C79.668 278.08 78.7896 277.76 78.0493 277.259C78.4342 274.868 78.5149 272.748 78.2916 270.899L32.5018 237.326C32.3237 236.437 32.419 235.379 32.7877 234.154L90.8971 228.994L94.2037 223.556C95.2202 223.695 96.0756 224.091 96.7698 224.746C95.1318 229.265 94.0669 232.342 93.5753 233.977C92.7764 236.632 91.7903 240.374 90.6168 245.2C89.6004 245.061 88.722 244.742 87.9816 244.24C88.3973 241.748 88.5011 239.551 88.293 237.651L72.032 238.941ZM43.1965 240.376L43.1504 240.529C48.3432 243.817 51.7846 246.078 53.4746 247.31L62.8869 254.068L67.3115 239.359L55.1656 240.3C50.8946 240.798 46.9049 240.823 43.1965 240.376Z" fill="black"/>
<path d="M158.542 129.505L130.707 89.9105L120.497 97.0879L125.178 107.781C124.254 108.692 123.335 109.24 122.423 109.425C118.328 104.806 115.273 100.924 113.256 97.7776L151.542 70.8622C154.127 74.2606 156.724 78.4651 159.334 83.4758C158.851 84.2719 158.024 84.9508 156.854 85.5125L148.377 77.488L137.578 85.0795L165.414 124.674L171.766 122.164C172.48 122.901 172.908 123.742 173.049 124.685C168.969 127.227 166.1 129.081 164.442 130.247C162.479 131.627 159.567 133.837 155.706 136.877C154.962 136.097 154.469 135.303 154.227 134.495C155.775 133.08 157.213 131.417 158.542 129.505Z" fill="black"/>
<path d="M327.759 32.4451L323.647 80.2686L329.647 82.3905C329.72 83.4138 329.507 84.3323 329.009 85.146C324.249 84.469 321.019 84.0574 319.319 83.9112C316.981 83.7101 313.329 83.53 308.365 83.3707C308.292 82.3474 308.425 81.422 308.764 80.5947C311.183 80.4815 313.354 80.1329 315.278 79.5489L317.265 56.4342L290.564 54.138L288.576 77.2527L294.577 79.3746C294.649 80.3979 294.436 81.3164 293.938 82.1301C289.179 81.4531 285.949 81.0415 284.248 80.8953C281.91 80.6942 278.259 80.5141 273.294 80.3548C273.222 79.3315 273.355 78.4061 273.694 77.5788C276.604 77.3473 278.775 76.9987 280.207 76.533L284.32 28.7095L278.319 26.5876C278.247 25.5643 278.46 24.6458 278.958 23.8322C283.717 24.5091 286.947 24.9207 288.648 25.0669C291.039 25.2726 294.69 25.4527 299.602 25.6075C299.727 26.6353 299.594 27.5607 299.202 28.3835C296.398 28.6241 294.227 28.9727 292.689 29.4292L290.941 49.7542L317.642 52.0504L319.39 31.7254L313.39 29.6035C313.317 28.5802 313.53 27.6617 314.028 26.8481C318.788 27.525 322.018 27.9366 323.718 28.0829C326.109 28.2885 329.761 28.4687 334.672 28.6234C334.798 29.6513 334.665 30.5766 334.273 31.3994C331.469 31.64 329.298 31.9886 327.759 32.4451Z" fill="black"/>
<path d="M493.143 115.318L468.168 117.03L462.813 149.083C462.688 149.873 463.029 151.029 463.835 152.55C464.679 154.109 465.508 155.385 466.323 156.378C465.707 157.199 464.944 157.753 464.034 158.041C460.884 154.409 458.714 151.981 457.526 150.756C455.298 148.459 452.38 145.643 448.773 142.306C449.427 141.449 450.134 140.837 450.894 140.471C453.016 142.277 454.884 143.437 456.498 143.952L460.735 118.444L457.058 114.654L442.128 129.136L445.268 134.672C444.652 135.492 443.89 136.046 442.98 136.334C439.829 132.703 437.66 130.275 436.472 129.05C434.838 127.365 432.199 124.836 428.554 121.461C429.246 120.566 429.954 119.955 430.675 119.626C432.502 121.05 434.37 122.21 436.28 123.106L470.735 89.6869L467.594 84.1512C468.21 83.3308 468.973 82.7767 469.883 82.4888C473.033 86.12 475.203 88.5481 476.391 89.7732C478.062 91.4959 480.701 94.0255 484.309 97.3619C483.693 98.1822 482.986 98.7938 482.187 99.1965C480.251 97.5828 478.383 96.4228 476.583 95.7165L460.217 111.591L462.333 113.773L491.622 111.221C491.304 109.821 490.257 107.976 488.481 105.686C489.097 104.865 489.86 104.311 490.77 104.023C493.92 107.654 496.127 110.121 497.389 111.422C498.652 112.724 500.678 114.622 503.469 117.116C502.853 117.936 502.146 118.548 501.348 118.951C498.293 116.49 495.558 115.279 493.143 115.318Z" fill="black"/>
<path d="M562.916 243.29L515.856 252.743L515.5 259.098C514.538 259.454 513.597 259.507 512.676 259.257C511.992 254.499 511.482 251.283 511.146 249.61C510.684 247.309 509.834 243.753 508.596 238.943C509.662 238.566 510.588 238.434 511.372 238.548C512.316 241.351 513.259 243.337 514.201 244.508L561.261 235.054L561.617 228.7C562.579 228.343 563.52 228.29 564.441 228.54C565.124 233.299 565.635 236.515 565.971 238.188C566.443 240.541 567.294 244.097 568.521 248.855C567.507 249.222 566.582 249.353 565.745 249.249C564.728 246.625 563.785 244.638 562.916 243.29Z" fill="black"/>
<path d="M513.212 360.307L558.556 377.235L562.92 365.544L553.014 359.369C553.262 358.095 553.71 357.124 554.358 356.455C560.347 357.951 565.062 359.426 568.504 360.882L552.135 404.726C548.082 403.384 543.563 401.383 538.578 398.725C538.526 397.795 538.824 396.768 539.472 395.643L551.001 397.471L555.618 385.105L510.274 368.177L506.453 373.838C505.448 373.633 504.62 373.182 503.97 372.484C505.899 368.08 507.217 364.929 507.926 363.03C508.766 360.782 509.918 357.313 511.385 352.623C512.44 352.846 513.296 353.222 513.952 353.752C513.474 355.794 513.228 357.979 513.212 360.307Z" fill="black"/>
<path d="M381.179 63.3708L404.073 51.5511L410.608 76.4732L387.714 88.2929L381.179 63.3708Z" fill="#D9D9D9"/>
<circle cx="218" cy="64" r="7" fill="#D9D9D9"/>
<circle cx="88" cy="167" r="7" fill="#D9D9D9"/>
<circle cx="519" cy="176" r="7" fill="#D9D9D9"/>
<circle cx="53" cy="325" r="7" fill="#D9D9D9"/>
<circle cx="550" cy="305" r="7" fill="#D9D9D9"/>
<path fill-rule="evenodd" clip-rule="evenodd" d="M176.368 528.627C177.145 529.941 179.268 532.304 181.547 531.24C183.825 530.176 181.892 527.629 180.641 526.489C179.518 525.428 176.653 523.324 174.167 523.4C173.737 523.414 173.312 523.414 172.887 523.414C170.251 523.417 167.639 523.419 163.81 526.489C160.254 529.34 159.164 532.84 159.063 534.233C158.862 536.277 159.028 541.189 161.307 544.496C164.155 548.63 167.219 551.243 169.334 552.098C169.934 552.341 170.438 552.554 170.902 552.749C172.071 553.243 172.992 553.631 174.599 554.141C176.394 554.712 180.727 554.949 182.669 554.997C184.654 554.981 190.342 554.474 197.212 552.574C204.082 550.673 213.395 546.429 217.193 544.544C226.198 540.347 245.235 531.801 249.343 531.193C251.1 530.933 252.686 530.428 254.555 529.832C258.151 528.688 262.798 527.208 271.741 526.489C283.216 525.566 287.434 526.743 288.522 527.046C288.723 527.102 288.817 527.129 288.83 527.106C288.833 527.102 288.832 527.105 288.825 527.116C288.646 527.425 284.829 534.008 285.162 538.462C285.507 543.071 287.579 548.535 291.333 550.673C295.088 552.811 297.548 553.809 301 553.619C303.762 553.467 306.438 552.637 307.43 552.241C309.531 550.816 313.619 546.805 313.17 542.168C312.721 537.531 311.602 535.643 311.098 535.279C310.48 533.933 308.233 530.603 304.194 528.057C300.807 525.922 299.712 525.307 299.514 525.239C301.918 523.809 307.913 520.958 312.868 520.882C314.759 520.853 316.067 520.754 317.208 520.667C319.817 520.469 321.557 520.337 327.411 521.262C334.143 522.327 341.839 525.38 344.846 526.774C347.824 528.152 358.258 533.749 376.176 545.114C394.094 556.479 410.772 559.352 416.872 559.368C427.977 559.986 450.55 556.413 452 537.179C448.72 520.607 438.349 519.536 433.573 521.072C431.329 522.276 427.065 525.691 427.963 529.72C428.86 533.749 431.473 535.105 432.667 535.279C433.501 535.295 434.85 534.766 433.573 532.523C431.976 529.72 434.134 525.443 434.911 525.729C437.672 524.74 439.284 524.842 439.744 525.016C442.549 526.045 447.866 529.919 446.692 537.179C445.518 544.439 441.571 548.155 439.744 549.105C437.198 551.354 429.672 555.766 419.936 555.424C410.2 555.082 402.702 553.16 400.171 552.241C394.489 550.182 381.2 544.629 373.501 538.89C365.802 533.15 350.643 524.747 344.026 521.262C338.646 518.982 326.298 514.544 319.945 515.038C313.455 515.038 309.358 515.64 308.121 515.941C304.136 517.049 295.433 519.989 292.499 522.878C287.078 521.585 281.954 521.389 280.07 521.452C274.445 521.421 262.022 521.87 257.327 523.923C252.045 525.443 244.539 528.104 241.446 529.245C228.528 535.152 200.578 547.338 192.12 548.82C191.844 548.868 191.567 548.917 191.287 548.966C180.835 550.809 167.664 553.132 164.932 538.462C166.589 529.378 173.247 528.12 176.368 528.627ZM295.045 528.628C293.448 529.863 290.125 533.588 289.607 538.605C289.089 543.623 292.153 547.031 293.75 548.108C296.21 550.294 304.668 551.624 307.732 543.547C309.735 537.959 304.222 532.983 301.216 531.193C298.914 530.164 294.458 528.209 295.045 528.628Z" fill="black"/>
<path d="M117.143 457.696L146.997 482.746L110.376 496.075L117.143 457.696Z" fill="#D9D9D9"/>
<path d="M493.975 436.25L493.346 457.086L513.22 464.319L492.958 469.964L492.329 490.8L480.435 473.452L460.172 479.096L473.084 462.73L461.19 445.382L481.064 452.615L493.975 436.25Z" fill="#D9D9D9"/>
<rect x="279" y="237" width="41" height="215" rx="6" fill="black"/>
<rect x="290" y="248" width="18" height="60" fill="white"/>
<path d="M183.88 200.611C183.093 200.335 182.215 200.536 181.622 201.129C181.029 201.722 180.832 202.595 181.104 203.387L184.398 212.881L178.501 220.829C178.009 221.494 177.933 222.382 178.31 223.116C178.688 223.85 179.446 224.32 180.272 224.316L190.278 224.276L196.134 232.504C196.618 233.18 197.448 233.529 198.269 233.395C199.089 233.26 199.764 232.672 200.009 231.876L202.883 222.381L212.379 219.506C213.175 219.261 213.768 218.591 213.897 217.766C214.027 216.941 213.683 216.115 213.006 215.631L204.774 209.78L204.814 199.774C204.818 198.948 204.353 198.185 203.614 197.813C202.875 197.44 201.992 197.511 201.326 198.003L193.375 203.905L183.88 200.611Z" fill="black"/>
<path d="M399.464 201.996C399.211 201.201 398.521 200.621 397.691 200.504C396.861 200.388 396.045 200.756 395.576 201.45L389.976 209.794L380.08 209.867C379.253 209.875 378.498 210.349 378.138 211.092C377.779 211.835 377.861 212.723 378.361 213.38L384.414 221.347L381.368 230.976C381.119 231.769 381.34 232.642 381.941 233.217C382.542 233.791 383.417 233.976 384.201 233.693L393.514 230.274L401.524 236.128C402.199 236.616 403.091 236.686 403.828 236.293C404.565 235.899 405.017 235.128 404.997 234.297L404.715 224.2L412.73 218.21C413.392 217.717 413.722 216.887 413.575 216.072C413.428 215.258 412.839 214.595 412.046 214.359L402.547 211.561L399.464 201.996Z" fill="black"/>
<path d="M324.914 140.477C324.355 140.758 324 141.352 324 142.004C324 142.656 324.355 143.245 324.914 143.531L331.632 146.94L332.708 154.555C332.799 155.191 333.226 155.721 333.81 155.917C334.394 156.114 335.039 155.955 335.47 155.499L340.705 149.973L348.103 151.278C348.712 151.384 349.332 151.119 349.692 150.594C350.053 150.069 350.099 149.374 349.809 148.802L346.331 141.999L349.809 135.195C350.099 134.623 350.058 133.928 349.692 133.403C349.327 132.878 348.712 132.613 348.103 132.719L340.705 134.029L335.47 128.504C335.039 128.048 334.394 127.883 333.81 128.085C333.226 128.286 332.799 128.811 332.708 129.448L331.632 137.067L324.914 140.477Z" fill="black"/>
<rect x="411.331" y="155" width="3.33775" height="9.69536" rx="1.66887" fill="black"/>
<rect x="415.305" y="168.669" width="3.33775" height="9.69536" rx="1.66887" transform="rotate(-90 415.305 168.669)" fill="black"/>
<rect x="401" y="168.669" width="3.33775" height="9.69536" rx="1.66887" transform="rotate(-90 401 168.669)" fill="black"/>
<rect x="411.331" y="169.305" width="3.33775" height="9.69536" rx="1.66887" fill="black"/>
<rect x="226.762" y="131" width="3.47682" height="10.0993" rx="1.73841" fill="black"/>
<rect x="230.901" y="145.238" width="3.47682" height="10.0993" rx="1.73841" transform="rotate(-90 230.901 145.238)" fill="black"/>
<rect x="216" y="145.238" width="3.47682" height="10.0993" rx="1.73841" transform="rotate(-90 216 145.238)" fill="black"/>
<rect x="226.762" y="145.901" width="3.47682" height="10.0993" rx="1.73841" fill="black"/>
<rect x="202.901" y="275" width="3.19868" height="9.29139" rx="1.59934" fill="black"/>
<rect x="206.709" y="288.099" width="3.19868" height="9.29139" rx="1.59934" transform="rotate(-90 206.709 288.099)" fill="black"/>
<rect x="193" y="288.099" width="3.19868" height="9.29139" rx="1.59934" transform="rotate(-90 193 288.099)" fill="black"/>
<rect x="202.901" y="288.708" width="3.19868" height="9.29139" rx="1.59934" fill="black"/>
<rect x="291.762" y="183" width="3.47682" height="10.0993" rx="1.73841" fill="black"/>
<rect x="295.901" y="197.238" width="3.47682" height="10.0993" rx="1.73841" transform="rotate(-90 295.901 197.238)" fill="black"/>
<rect x="281" y="197.238" width="3.47682" height="10.0993" rx="1.73841" transform="rotate(-90 281 197.238)" fill="black"/>
<rect x="291.762" y="197.901" width="3.47682" height="10.0993" rx="1.73841" fill="black"/>
<defs>
<linearGradient id="paint0_linear_313_1122" x1="299.995" y1="100" x2="299.995" y2="332" gradientUnits="userSpaceOnUse">
<stop stop-color="#FF0000"/>
<stop offset="0.9999" stop-color="#FA003D" stop-opacity="0.239583"/>
<stop offset="1" stop-color="#FF0000" stop-opacity="0"/>
</linearGradient>
</defs>
</svg>
