<svg width="400" height="400" viewBox="0 0 400 400" fill="none" xmlns="http://www.w3.org/2000/svg">
<circle cx="200" cy="200" r="199.5" fill="url(#paint0_linear_313_1123)" stroke="black"/>
<path fill-rule="evenodd" clip-rule="evenodd" d="M0.00358239 202.367C7.30293 192.233 32.4277 181.681 74.668 220.411C116.935 259.165 164.079 191.496 182.367 152.817L223.008 174.785C235.282 190.995 248.582 182.319 265.642 171.19C294.831 152.147 335.029 125.923 399.931 204.892C399.97 203.266 399.99 201.635 399.99 200C399.99 89.543 310.447 0 199.99 0C129.62 0 67.7378 36.3433 32.0902 91.284C9.56353 130.092 0.876264 172.555 -1.00934e-05 202.033C0.00109678 202.144 0.0022943 202.256 0.00358239 202.367Z" fill="url(#paint1_linear_313_1123)"/>
<rect x="177" y="138" width="46" height="223" rx="6" fill="black"/>
<rect x="189" y="150" width="21" height="69" fill="white"/>
<path d="M83.8805 100.611C83.0933 100.335 82.2151 100.536 81.6222 101.129C81.0292 101.722 80.8325 102.595 81.1038 103.387L84.3984 112.881L78.5006 120.829C78.0091 121.494 77.933 122.382 78.3105 123.116C78.6879 123.85 79.4464 124.32 80.2718 124.316L90.2779 124.276L96.134 132.504C96.6176 133.18 97.4483 133.529 98.2687 133.395C99.0891 133.26 99.7641 132.672 100.009 131.876L102.883 122.381L112.379 119.506C113.175 119.261 113.768 118.591 113.897 117.766C114.027 116.941 113.683 116.115 113.006 115.631L104.774 109.78L104.814 99.7738C104.818 98.9484 104.353 98.1852 103.614 97.8125C102.875 97.4399 101.992 97.5112 101.326 98.0026L93.3745 103.905L83.8805 100.611Z" fill="black"/>
<path d="M299.464 101.996C299.211 101.201 298.521 100.621 297.691 100.504C296.861 100.388 296.045 100.756 295.576 101.45L289.976 109.794L280.08 109.867C279.253 109.875 278.498 110.349 278.138 111.092C277.779 111.835 277.861 112.723 278.361 113.38L284.414 121.347L281.368 130.976C281.119 131.769 281.34 132.642 281.941 133.217C282.542 133.791 283.417 133.976 284.201 133.693L293.514 130.274L301.524 136.128C302.199 136.616 303.091 136.686 303.828 136.293C304.565 135.899 305.017 135.128 304.997 134.297L304.715 124.2L312.73 118.21C313.392 117.717 313.722 116.887 313.575 116.072C313.428 115.258 312.839 114.595 312.046 114.359L302.547 111.561L299.464 101.996Z" fill="black"/>
<path d="M224.914 40.4767C224.355 40.7577 224 41.3516 224 42.0038C224 42.656 224.355 43.2446 224.914 43.5309L231.632 46.9404L232.708 54.5547C232.799 55.191 233.226 55.7213 233.81 55.9175C234.394 56.1137 235.039 55.9546 235.47 55.4986L240.705 49.9734L248.103 51.2778C248.712 51.3839 249.332 51.1187 249.692 50.5938C250.053 50.0689 250.099 49.3742 249.809 48.8016L246.331 41.9985L249.809 35.1954C250.099 34.6228 250.058 33.9282 249.692 33.4032C249.327 32.8783 248.712 32.6131 248.103 32.7192L240.705 34.0289L235.47 28.5037C235.039 28.0477 234.394 27.8834 233.81 28.0848C233.226 28.2863 232.799 28.8113 232.708 29.4476L231.632 37.0672L224.914 40.4767Z" fill="black"/>
<rect x="311.331" y="55" width="3.33775" height="9.69536" rx="1.66887" fill="black"/>
<rect x="315.305" y="68.6689" width="3.33775" height="9.69536" rx="1.66887" transform="rotate(-90 315.305 68.6689)" fill="black"/>
<rect x="301" y="68.6689" width="3.33775" height="9.69536" rx="1.66887" transform="rotate(-90 301 68.6689)" fill="black"/>
<rect x="311.331" y="69.3047" width="3.33775" height="9.69536" rx="1.66887" fill="black"/>
<rect x="126.762" y="31" width="3.47682" height="10.0993" rx="1.73841" fill="black"/>
<rect x="130.901" y="45.2383" width="3.47682" height="10.0993" rx="1.73841" transform="rotate(-90 130.901 45.2383)" fill="black"/>
<rect x="116" y="45.2383" width="3.47682" height="10.0993" rx="1.73841" transform="rotate(-90 116 45.2383)" fill="black"/>
<rect x="126.762" y="45.9009" width="3.47682" height="10.0993" rx="1.73841" fill="black"/>
<rect x="102.901" y="175" width="3.19868" height="9.29139" rx="1.59934" fill="black"/>
<rect x="106.709" y="188.099" width="3.19868" height="9.29139" rx="1.59934" transform="rotate(-90 106.709 188.099)" fill="black"/>
<rect x="93" y="188.099" width="3.19868" height="9.29139" rx="1.59934" transform="rotate(-90 93 188.099)" fill="black"/>
<rect x="102.901" y="188.708" width="3.19868" height="9.29139" rx="1.59934" fill="black"/>
<rect x="191.762" y="83" width="3.47682" height="10.0993" rx="1.73841" fill="black"/>
<rect x="195.901" y="97.2383" width="3.47682" height="10.0993" rx="1.73841" transform="rotate(-90 195.901 97.2383)" fill="black"/>
<rect x="181" y="97.2383" width="3.47682" height="10.0993" rx="1.73841" transform="rotate(-90 181 97.2383)" fill="black"/>
<rect x="191.762" y="97.9009" width="3.47682" height="10.0993" rx="1.73841" fill="black"/>
<defs>
<linearGradient id="paint0_linear_313_1123" x1="200" y1="0" x2="200" y2="400" gradientUnits="userSpaceOnUse">
<stop stop-color="white"/>
<stop offset="1" stop-color="#FFEACE"/>
</linearGradient>
<linearGradient id="paint1_linear_313_1123" x1="199.995" y1="0" x2="199.995" y2="232" gradientUnits="userSpaceOnUse">
<stop stop-color="#FF0000"/>
<stop offset="0.9999" stop-color="#FA003D" stop-opacity="0.239583"/>
<stop offset="1" stop-color="#FF0000" stop-opacity="0"/>
</linearGradient>
</defs>
</svg>
